<svg width="1152" height="94" viewBox="0 0 1152 94" fill="none" xmlns="http://www.w3.org/2000/svg">
<g filter="url(#filter0_b_1417_1753)">
<rect width="1152" height="94" fill="#797979" fill-opacity="0.5"/>
<rect x="0.5" y="0.5" width="1151" height="93" stroke="white"/>
</g>
<path d="M61.8884 60.516C53.6324 60.516 47.8274 54.883 47.8274 46.885V30.459H56.1694V46.455C56.1694 50.239 58.5344 52.948 61.8884 52.948C65.2424 52.948 67.6074 50.239 67.6074 46.455V30.459H75.9494V46.885C75.9494 54.883 70.1444 60.516 61.8884 60.516ZM86.3873 60V30.459H94.7293L106.253 46.283V30.459H114.595V60H106.253L94.7293 44.176V60H86.3873ZM125.533 60V30.459H133.875V60H125.533ZM151.905 60V37.898H143.176V30.459H168.976V37.898H160.247V60H151.905ZM201.85 37.898H186.413V41.209H200.474V48.648H186.413V52.561H201.85V60H178.071V30.459H201.85V37.898ZM211.67 60V30.459H222.678C232.998 30.459 240.308 36.565 240.308 45.208C240.308 53.851 232.998 60 222.678 60H211.67ZM220.012 52.432H224.054C228.526 52.432 231.708 49.422 231.708 45.208C231.708 40.994 228.526 38.027 224.054 38.027H220.012V52.432ZM282.2 60.516C273.471 60.516 266.118 53.507 266.118 45.208C266.118 36.909 273.471 29.943 282.2 29.943C286.93 29.943 291.23 31.964 294.197 35.146L288.048 40.521C286.672 38.715 284.522 37.511 282.2 37.511C278.158 37.511 274.718 41.037 274.718 45.208C274.718 49.422 278.158 52.948 282.2 52.948C284.565 52.948 286.672 51.744 288.091 49.938L294.197 55.27C291.23 58.495 286.93 60.516 282.2 60.516ZM326.965 37.898H311.528V41.209H325.589V48.648H311.528V52.561H326.965V60H303.186V30.459H326.965V37.898ZM336.785 60V30.459H345.127L353.039 44.563L360.951 30.459H369.293V60H360.951V44.176L353.039 58.28L345.127 44.176V60H336.785ZM403.821 37.898H388.384V41.209H402.445V48.648H388.384V52.561H403.821V60H380.042V30.459H403.821V37.898ZM413.641 60V30.459H421.983L433.507 46.283V30.459H441.849V60H433.507L421.983 44.176V60H413.641ZM459.753 60V37.898H451.024V30.459H476.824V37.898H468.095V60H459.753ZM503.397 60V30.459H511.739V60H503.397ZM522.631 60V30.459H530.973L542.497 46.283V30.459H550.839V60H542.497L530.973 44.176V60H522.631ZM561.604 60V30.459H572.612C582.932 30.459 590.242 36.565 590.242 45.208C590.242 53.851 582.932 60 572.612 60H561.604ZM569.946 52.432H573.988C578.46 52.432 581.642 49.422 581.642 45.208C581.642 40.994 578.46 38.027 573.988 38.027H569.946V52.432ZM613.667 60.516C605.411 60.516 599.606 54.883 599.606 46.885V30.459H607.948V46.455C607.948 50.239 610.313 52.948 613.667 52.948C617.021 52.948 619.386 50.239 619.386 46.455V30.459H627.728V46.885C627.728 54.883 621.923 60.516 613.667 60.516ZM650.034 60.516C644.702 60.516 639.671 58.839 635.93 55.528L640.574 49.981C643.584 52.346 646.852 53.593 650.335 53.593C652.614 53.593 653.818 52.819 653.818 51.529C653.818 50.11 652.786 49.895 648.701 48.949C642.294 47.487 637.349 45.81 637.349 39.661C637.349 33.77 641.993 29.943 649.002 29.943C654.119 29.943 658.118 31.319 661.386 33.942L657.215 39.833C654.463 37.855 651.453 36.866 648.787 36.866C646.766 36.866 645.777 37.683 645.777 38.801C645.777 40.306 646.809 40.779 651.023 41.682C657.903 43.144 662.203 44.993 662.203 50.626C662.203 56.861 657.43 60.516 650.034 60.516ZM678.693 60V37.898H669.964V30.459H695.764V37.898H687.035V60H678.693ZM731.52 60H722.017L715.782 51.099H713.202V60H704.86V30.459H719.007C725.629 30.459 730.316 34.716 730.316 40.779C730.316 44.993 728.08 48.304 724.468 49.981L731.52 60ZM713.202 38.027V43.531H718.319C720.297 43.531 721.716 42.37 721.716 40.779C721.716 39.188 720.297 38.027 718.319 38.027H713.202ZM740.604 60V30.459H748.946V60H740.604ZM780.005 60L778.5 56.044H768.223L766.718 60H757.301L768.653 30.459H778.07L789.422 60H780.005ZM770.588 49.895H776.135L773.383 42.714L770.588 49.895ZM805.978 52.561H819.738V60H797.636V30.459H805.978V52.561ZM861.153 60.516C852.424 60.516 845.071 53.507 845.071 45.208C845.071 36.909 852.424 29.943 861.153 29.943C865.883 29.943 870.183 31.964 873.15 35.146L867.001 40.521C865.625 38.715 863.475 37.511 861.153 37.511C857.111 37.511 853.671 41.037 853.671 45.208C853.671 49.422 857.111 52.948 861.153 52.948C863.518 52.948 865.625 51.744 867.044 49.938L873.15 55.27C870.183 58.495 865.883 60.516 861.153 60.516ZM896.473 60.516C887.744 60.516 880.391 53.507 880.391 45.208C880.391 36.909 887.744 29.943 896.473 29.943C905.202 29.943 912.555 36.909 912.555 45.208C912.555 53.507 905.202 60.516 896.473 60.516ZM896.473 52.948C900.515 52.948 903.955 49.422 903.955 45.208C903.955 41.037 900.515 37.511 896.473 37.511C892.431 37.511 888.991 41.037 888.991 45.208C888.991 49.422 892.431 52.948 896.473 52.948ZM922.163 60V30.459H930.505L938.417 44.563L946.329 30.459H954.671V60H946.329V44.176L938.417 58.28L930.505 44.176V60H922.163ZM965.42 60V30.459H979.567C986.189 30.459 990.876 34.716 990.876 40.779C990.876 46.842 986.189 51.099 979.567 51.099H973.762V60H965.42ZM973.762 43.531H978.879C980.857 43.531 982.276 42.37 982.276 40.779C982.276 39.188 980.857 38.027 978.879 38.027H973.762V43.531ZM1019.98 60L1018.48 56.044H1008.2L1006.7 60H997.279L1008.63 30.459H1018.05L1029.4 60H1019.98ZM1010.57 49.895H1016.11L1013.36 42.714L1010.57 49.895ZM1037.61 60V30.459H1045.96L1057.48 46.283V30.459H1065.82V60H1057.48L1045.96 44.176V60H1037.61ZM1085.1 60V50.282L1073.75 30.459H1083.3L1089.27 42.456L1095.59 30.459H1104.75L1093.44 50.282V60H1085.1Z" fill="white"/>
<defs>
<filter id="filter0_b_1417_1753" x="-10" y="-10" width="1172" height="114" filterUnits="userSpaceOnUse" color-interpolation-filters="sRGB">
<feFlood flood-opacity="0" result="BackgroundImageFix"/>
<feGaussianBlur in="BackgroundImageFix" stdDeviation="5"/>
<feComposite in2="SourceAlpha" operator="in" result="effect1_backgroundBlur_1417_1753"/>
<feBlend mode="normal" in="SourceGraphic" in2="effect1_backgroundBlur_1417_1753" result="shape"/>
</filter>
</defs>
</svg>
